<?xml version="1.0" encoding="UTF-8" standalone="no"?>
<svg width="32px" height="32px" viewBox="0 0 32 32" version="1.1" xmlns="http://www.w3.org/2000/svg" xmlns:xlink="http://www.w3.org/1999/xlink">
    <!-- Generator: Sketch 40.1 (33804) - http://www.bohemiancoding.com/sketch -->
    <title>Slice 1</title>
    <desc>Created with Sketch.</desc>
    <defs></defs>
    <g id="Page-1" stroke="none" stroke-width="1" fill="none" fill-rule="evenodd">
        <g id="1475522185_twitter_circle" transform="translate(7.000000, 8.000000)" fill="#FFFFFF">
            <g id="Layer_1">
                <path d="M17.5333333,2.26666667 C16.9333333,2.6 16.2,2.8 15.5333333,2.86666667 C16.2666667,2.4 16.8,1.66666667 17.0666667,0.8 C16.4,1.2 15.6666667,1.53333333 14.8,1.73333333 C14.1333333,1 13.2666667,0.533333333 12.2666667,0.533333333 C10.3333333,0.533333333 8.73333333,2.2 8.73333333,4.33333333 C8.73333333,4.6 8.73333333,4.93333333 8.8,5.2 C5.86666667,5.06666667 3.26666667,3.53333333 1.53333333,1.26666667 C1.2,1.8 1.06666667,2.46666667 1.06666667,3.2 C1.06666667,4.53333333 1.66666667,5.66666667 2.6,6.33333333 C2,6.33333333 1.46666667,6.13333333 1,5.86666667 L1,5.93333333 C1,7.73333333 2.2,9.26666667 3.8,9.66666667 C3.53333333,9.73333333 3.2,9.8 2.86666667,9.8 C2.66666667,9.8 2.4,9.8 2.2,9.73333333 C2.66666667,11.2666667 3.93333333,12.3333333 5.46666667,12.3333333 C4.26666667,13.3333333 2.73333333,13.9333333 1.13333333,13.9333333 C0.866666667,13.9333333 0.6,13.9333333 0.266666667,13.8666667 C1.8,14.9333333 3.66666667,15.6 5.66666667,15.6 C12.1333333,15.6 15.6666667,9.86666667 15.6666667,4.86666667 L15.6666667,4.4 C16.4666667,3.73333333 17.0666667,3.06666667 17.5333333,2.26666667 L17.5333333,2.26666667 Z" id="Shape"></path>
            </g>
        </g>
    </g>
</svg>